<svg version="1.1" id="Layer_1" xmlns="http://www.w3.org/2000/svg" xmlns:xlink="http://www.w3.org/1999/xlink" x="0px" y="0px"
	 width="100%" viewBox="0 0 192 192" enable-background="new 0 0 192 192" xml:space="preserve">
<path fill="#A576E5" opacity="1.000000" stroke="none" 
	d="
M116.000000,193.000000 
	C77.358192,193.000000 39.216389,193.000000 1.037290,193.000000 
	C1.037290,129.066559 1.037290,65.133102 1.037290,1.099821 
	C64.891624,1.099821 128.783463,1.099821 192.837646,1.099821 
	C192.837646,64.999664 192.837646,128.999802 192.837646,193.000000 
	C167.466721,193.000000 141.983368,193.000000 116.000000,193.000000 
M142.213959,165.297699 
	C152.071442,164.163437 158.897522,157.837158 158.958176,148.673340 
	C159.155518,118.854027 159.125793,89.031769 158.931427,59.212292 
	C158.881073,51.487000 153.380615,44.889893 145.820358,43.626797 
	C140.871246,42.799938 135.671921,43.470718 130.019882,43.470718 
	C130.019882,46.853218 130.073990,49.977863 130.009399,53.100056 
	C129.837402,61.414757 125.395058,66.371826 117.125862,66.553787 
	C104.637566,66.828590 92.134155,66.821571 79.645683,66.547035 
	C70.701416,66.350410 66.398636,61.596172 66.198547,52.586330 
	C66.130363,49.516014 66.187737,46.442905 66.187737,43.002132 
	C62.400234,43.002132 59.586227,42.998619 56.772224,43.002731 
	C43.715214,43.021816 37.043884,49.615025 37.030758,62.629940 
	C37.003029,90.118698 37.007385,117.607498 37.022362,145.096268 
	C37.029720,158.607681 43.749207,165.307587 57.310898,165.315567 
	C85.299446,165.332031 113.288017,165.316650 142.213959,165.297699 
M75.384689,42.997284 
	C74.517952,43.933994 73.029610,44.794781 72.904144,45.822025 
	C72.564331,48.604343 72.689041,51.463486 72.840622,54.280800 
	C73.042816,58.038692 75.148796,60.075665 78.930672,60.086788 
	C91.727966,60.124409 104.525452,60.099060 117.322861,60.096626 
	C120.876366,60.095951 123.139084,58.218872 123.473221,54.831413 
	C123.842102,51.091759 123.557449,47.287643 123.557449,43.615578 
	C116.778259,42.393898 116.778259,42.393898 115.805931,39.529472 
	C113.040596,31.382973 106.261040,26.523935 97.710640,26.560249 
	C89.647842,26.594494 82.937469,31.716141 80.051033,39.561272 
	C79.532173,40.971466 77.556458,41.845638 75.384689,42.997284 
z"/>
<path fill="#FEFEFF" opacity="1.000000" stroke="none" 
	d="
M141.745270,165.306030 
	C113.288017,165.316650 85.299446,165.332031 57.310898,165.315567 
	C43.749207,165.307587 37.029720,158.607681 37.022362,145.096268 
	C37.007385,117.607498 37.003029,90.118698 37.030758,62.629940 
	C37.043884,49.615025 43.715214,43.021816 56.772224,43.002731 
	C59.586227,42.998619 62.400234,43.002132 66.187737,43.002132 
	C66.187737,46.442905 66.130363,49.516014 66.198547,52.586330 
	C66.398636,61.596172 70.701416,66.350410 79.645683,66.547035 
	C92.134155,66.821571 104.637566,66.828590 117.125862,66.553787 
	C125.395058,66.371826 129.837402,61.414757 130.009399,53.100056 
	C130.073990,49.977863 130.019882,46.853218 130.019882,43.470718 
	C135.671921,43.470718 140.871246,42.799938 145.820358,43.626797 
	C153.380615,44.889893 158.881073,51.487000 158.931427,59.212292 
	C159.125793,89.031769 159.155518,118.854027 158.958176,148.673340 
	C158.897522,157.837158 152.071442,164.163437 141.745270,165.306030 
M89.776039,118.004761 
	C93.117752,119.914383 95.818451,118.739555 98.271500,116.265251 
	C109.989815,104.445358 121.720276,92.637497 133.432602,80.811684 
	C136.093979,78.124512 137.175247,75.051346 134.241287,72.032967 
	C131.134399,68.836693 127.925949,69.860573 125.083115,72.697166 
	C117.660278,80.103668 110.187195,87.462242 102.888138,94.989258 
	C99.665810,98.312225 96.816284,101.996727 93.555618,105.799179 
	C87.253502,99.465919 82.106514,94.295593 76.962067,89.122726 
	C74.350342,86.496559 71.375053,85.007828 68.242142,87.933495 
	C65.018364,90.944023 65.874794,94.287346 68.677322,97.136604 
	C75.444778,104.016922 82.312958,110.798164 89.776039,118.004761 
M131.258774,124.818413 
	C108.942322,124.818062 86.625862,124.817192 64.309410,124.817978 
	C61.416920,124.818085 58.135002,124.650505 58.036572,128.668396 
	C57.940544,132.587982 61.039780,132.897385 64.044495,132.897720 
	C86.694031,132.900330 109.343567,132.901627 131.993103,132.898666 
	C134.766495,132.898315 137.731918,132.767746 137.967667,129.165085 
	C138.228424,125.180618 135.258575,124.764587 131.258774,124.818413 
M65.670830,140.778366 
	C64.504662,140.790680 63.075901,140.380112 62.228748,140.906143 
	C60.623428,141.902969 59.351681,143.436981 57.941349,144.747818 
	C59.332043,146.115356 60.633961,147.596802 62.162174,148.787888 
	C62.688412,149.198044 63.779030,148.898727 64.611832,148.898758 
	C86.938377,148.899704 109.264931,148.899139 131.591476,148.889847 
	C132.589005,148.889435 133.909744,149.190216 134.518311,148.680344 
	C135.885956,147.534485 137.631180,146.053619 137.810654,144.541534 
	C137.937958,143.468781 135.954849,141.732910 134.545883,141.016342 
	C133.339584,140.402832 131.610580,140.782562 130.112732,140.782028 
	C108.952492,140.774612 87.792259,140.777313 65.670830,140.778366 
z"/>
<path fill="#FDFCFE" opacity="1.000000" stroke="none" 
	d="
M75.819031,42.982285 
	C77.556458,41.845638 79.532173,40.971466 80.051033,39.561272 
	C82.937469,31.716141 89.647842,26.594494 97.710640,26.560249 
	C106.261040,26.523935 113.040596,31.382973 115.805931,39.529472 
	C116.778259,42.393898 116.778259,42.393898 123.557449,43.615578 
	C123.557449,47.287643 123.842102,51.091759 123.473221,54.831413 
	C123.139084,58.218872 120.876366,60.095951 117.322861,60.096626 
	C104.525452,60.099060 91.727966,60.124409 78.930672,60.086788 
	C75.148796,60.075665 73.042816,58.038692 72.840622,54.280800 
	C72.689041,51.463486 72.564331,48.604343 72.904144,45.822025 
	C73.029610,44.794781 74.517952,43.933994 75.819031,42.982285 
M91.940964,45.421619 
	C93.340294,50.563648 97.522545,49.445957 100.902405,48.887970 
	C102.177895,48.677391 104.266190,45.652836 103.901901,44.778240 
	C103.007538,42.630955 101.233376,40.084713 99.211014,39.344883 
	C95.840630,38.111908 93.182091,40.088181 92.033188,43.624889 
	C91.932899,43.933617 91.948181,44.279888 91.940964,45.421619 
z"/>
<path fill="#529AF2" opacity="1.000000" stroke="none" 
	d="
M89.458282,117.812057 
	C82.312958,110.798164 75.444778,104.016922 68.677322,97.136604 
	C65.874794,94.287346 65.018364,90.944023 68.242142,87.933495 
	C71.375053,85.007828 74.350342,86.496559 76.962067,89.122726 
	C82.106514,94.295593 87.253502,99.465919 93.555618,105.799179 
	C96.816284,101.996727 99.665810,98.312225 102.888138,94.989258 
	C110.187195,87.462242 117.660278,80.103668 125.083115,72.697166 
	C127.925949,69.860573 131.134399,68.836693 134.241287,72.032967 
	C137.175247,75.051346 136.093979,78.124512 133.432602,80.811684 
	C121.720276,92.637497 109.989815,104.445358 98.271500,116.265251 
	C95.818451,118.739555 93.117752,119.914383 89.458282,117.812057 
z"/>
<path fill="#A678E6" opacity="1.000000" stroke="none" 
	d="
M131.723633,124.820740 
	C135.258575,124.764587 138.228424,125.180618 137.967667,129.165085 
	C137.731918,132.767746 134.766495,132.898315 131.993103,132.898666 
	C109.343567,132.901627 86.694031,132.900330 64.044495,132.897720 
	C61.039780,132.897385 57.940544,132.587982 58.036572,128.668396 
	C58.135002,124.650505 61.416920,124.818085 64.309410,124.817978 
	C86.625862,124.817192 108.942322,124.818062 131.723633,124.820740 
z"/>
<path fill="#A77AE5" opacity="1.000000" stroke="none" 
	d="
M66.151428,140.777954 
	C87.792259,140.777313 108.952492,140.774612 130.112732,140.782028 
	C131.610580,140.782562 133.339584,140.402832 134.545883,141.016342 
	C135.954849,141.732910 137.937958,143.468781 137.810654,144.541534 
	C137.631180,146.053619 135.885956,147.534485 134.518311,148.680344 
	C133.909744,149.190216 132.589005,148.889435 131.591476,148.889847 
	C109.264931,148.899139 86.938377,148.899704 64.611832,148.898758 
	C63.779030,148.898727 62.688412,149.198044 62.162174,148.787888 
	C60.633961,147.596802 59.332043,146.115356 57.941353,144.747818 
	C59.351681,143.436981 60.623428,141.902969 62.228748,140.906143 
	C63.075901,140.380112 64.504662,140.790680 66.151428,140.777954 
z"/>
<path fill="#A678E5" opacity="1.000000" stroke="none" 
	d="
M91.925369,45.015167 
	C91.948181,44.279888 91.932899,43.933617 92.033188,43.624889 
	C93.182091,40.088181 95.840630,38.111908 99.211014,39.344883 
	C101.233376,40.084713 103.007538,42.630955 103.901901,44.778240 
	C104.266190,45.652836 102.177895,48.677391 100.902405,48.887970 
	C97.522545,49.445957 93.340294,50.563648 91.925369,45.015167 
z"/>
</svg>